<svg width="516" height="290" viewBox="0 0 516 290" fill="none" xmlns="http://www.w3.org/2000/svg">
<g filter="url(#filter0_d_260_172)">
<path d="M469.677 20H46.3226C31.785 20 20 31.782 20 46.3158V243.684C20 258.218 31.785 270 46.3226 270H469.677C484.215 270 496 258.218 496 243.684V46.3158C496 31.782 484.215 20 469.677 20Z" fill="white"/>
<path d="M194.836 98.3948C197.289 103.184 200.768 105.579 204.418 105.579C209.836 105.636 212.858 103.013 212.858 98.9649C212.858 89.386 191.699 93.4912 191.699 78.8377C191.699 71.8816 197.403 67.7763 205.216 67.8333C210.634 67.8904 215.824 70.9123 218.162 77.4693L212.744 79.4079C211.262 75.0176 208.296 73.136 205.159 73.079C200.654 73.079 197.745 75.3026 197.745 78.8377C197.745 88.3026 218.847 84.7105 218.847 99.0219C218.847 106.092 213.315 110.939 204.361 110.825C198.201 110.768 193.296 107.232 189.817 101.189L194.836 98.3948ZM237.532 104.838C239.642 104.838 242.094 103.754 243.634 102.044L247.798 106.206C245.459 108.772 241.182 110.597 237.76 110.597C229.661 110.597 223.958 104.895 223.958 96.9123C223.958 88.8728 229.661 83.1711 237.76 83.1711C241.353 83.1711 245.345 84.9956 247.798 87.6184L243.634 91.7237C242.094 90.0132 239.642 88.9298 237.532 88.9298C233.026 88.9298 230.004 92.0658 230.004 96.9123C230.004 101.702 233.026 104.838 237.532 104.838ZM265.063 105.465C269.284 105.465 272.135 102.101 272.135 96.9123C272.135 91.7807 269.284 88.3597 265.063 88.3597C260.843 88.3597 257.991 91.7237 257.991 96.9123C257.991 102.101 260.786 105.465 265.063 105.465ZM265.063 83.1711C272.762 83.1711 278.181 88.8728 278.181 96.9123C278.181 104.895 272.762 110.654 265.063 110.654C257.364 110.654 251.946 104.895 251.946 96.9123C251.946 88.8728 257.364 83.1711 265.063 83.1711ZM284.044 110.425V83.2281H290.089V87.2193C291.914 84.6535 295.222 82.943 298.416 83.1141V88.7018C293.568 88.4737 290.089 92.75 290.089 96.9123V110.425H284.044ZM314.633 110.539C306.934 110.539 301.515 104.895 301.515 96.9123C301.515 88.8728 306.934 83.2281 314.633 83.2281C323.074 83.2281 325.754 90.1272 325.925 90.5834C327.579 94.4605 327.066 98.7939 327.066 99.25H307.447C308.131 102.899 311.211 105.408 314.633 105.408C319.138 105.408 320.964 102.785 321.42 101.987L326.267 104.154C324.956 107.232 321.135 110.539 314.633 110.539ZM321.363 94.4605C320.792 91.0965 318.853 88.3597 314.633 88.3597C310.983 88.3597 308.131 90.9255 307.447 94.4605H321.363Z" fill="black"/>
<path d="M211.599 149.211V213.421L200.28 213.246V161.053L188.084 166.842L183.96 157.018L200.368 149.211H211.599ZM248.824 204.035C257.072 204.035 262.424 195 262.424 181.228C262.424 167.456 257.072 158.421 248.824 158.421C240.489 158.421 235.049 167.456 235.049 181.228C235.049 195 240.489 204.035 248.824 204.035ZM248.824 213.947C234.084 213.947 223.731 200.439 223.731 181.228C223.731 162.018 234.084 148.509 248.824 148.509C263.477 148.509 273.743 162.018 273.743 181.228C273.743 200.439 263.477 213.947 248.824 213.947ZM306.576 204.035C314.824 204.035 320.176 195 320.176 181.228C320.176 167.456 314.824 158.421 306.576 158.421C298.241 158.421 292.801 167.456 292.801 181.228C292.801 195 298.241 204.035 306.576 204.035ZM306.576 213.947C291.835 213.947 281.482 200.439 281.482 181.228C281.482 162.018 291.835 148.509 306.576 148.509C321.229 148.509 331.495 162.018 331.495 181.228C331.495 200.439 321.229 213.947 306.576 213.947Z" fill="black"/>
</g>
<defs>
<filter id="filter0_d_260_172" x="0" y="0" width="516" height="290" filterUnits="userSpaceOnUse" color-interpolation-filters="sRGB">
<feFlood flood-opacity="0" result="BackgroundImageFix"/>
<feColorMatrix in="SourceAlpha" type="matrix" values="0 0 0 0 0 0 0 0 0 0 0 0 0 0 0 0 0 0 127 0" result="hardAlpha"/>
<feOffset/>
<feGaussianBlur stdDeviation="10"/>
<feComposite in2="hardAlpha" operator="out"/>
<feColorMatrix type="matrix" values="0 0 0 0 0 0 0 0 0 0 0 0 0 0 0 0 0 0 0.35 0"/>
<feBlend mode="normal" in2="BackgroundImageFix" result="effect1_dropShadow_260_172"/>
<feBlend mode="normal" in="SourceGraphic" in2="effect1_dropShadow_260_172" result="shape"/>
</filter>
</defs>
</svg>
